<svg width="19" height="19" viewBox="0 0 19 19" fill="none" xmlns="http://www.w3.org/2000/svg">
<path d="M8.17 13.87L14.8675 7.1725L13.5375 5.8425L8.17 11.21L5.4625 8.5025L4.1325 9.8325L8.17 13.87ZM9.5 19C8.18583 19 6.95083 18.7505 5.795 18.2514C4.63917 17.7523 3.63375 17.0756 2.77875 16.2212C1.92375 15.3662 1.24703 14.3608 0.7486 13.205C0.250167 12.0492 0.000633333 10.8142 0 9.5C0 8.18583 0.249533 6.95083 0.7486 5.795C1.24767 4.63917 1.92438 3.63375 2.77875 2.77875C3.63375 1.92375 4.63917 1.24703 5.795 0.7486C6.95083 0.250167 8.18583 0.000633333 9.5 0C10.8142 0 12.0492 0.249533 13.205 0.7486C14.3608 1.24767 15.3662 1.92438 16.2212 2.77875C17.0762 3.63375 17.7533 4.63917 18.2523 5.795C18.7514 6.95083 19.0006 8.18583 19 9.5C19 10.8142 18.7505 12.0492 18.2514 13.205C17.7523 14.3608 17.0756 15.3662 16.2212 16.2212C15.3662 17.0762 14.3608 17.7533 13.205 18.2523C12.0492 18.7514 10.8142 19.0006 9.5 19Z" fill="#8ECAE6"/>
</svg>
