<svg width="21" height="19" viewBox="0 0 21 19" fill="none" xmlns="http://www.w3.org/2000/svg">
<path d="M20.7013 15.4641L12.6807 1.2414C12.4684 0.865782 12.1548 0.552235 11.7729 0.333769C11.3911 0.115303 10.9551 0 10.5109 0C10.0667 0 9.63076 0.115303 9.2489 0.333769C8.86704 0.552235 8.55344 0.865782 8.34109 1.2414L0.312316 15.4641C0.102172 15.8272 -0.00543813 16.2371 0.00021153 16.6527C0.00586119 17.0684 0.124573 17.4754 0.344516 17.8331C0.564458 18.1908 0.877947 18.4868 1.25374 18.6916C1.62952 18.8963 2.05449 19.0026 2.48626 19H18.5273C18.9556 19.0003 19.3766 18.8935 19.749 18.69C20.1214 18.4865 20.4325 18.1933 20.6517 17.8391C20.871 17.485 20.9908 17.082 20.9995 16.6698C21.0082 16.2576 20.9054 15.8503 20.7013 15.4879V15.4641ZM9.27984 5.31635C9.27984 5.00096 9.40998 4.69848 9.64162 4.47547C9.87327 4.25245 10.1874 4.12716 10.515 4.12716C10.8426 4.12716 11.1568 4.25245 11.3885 4.47547C11.6201 4.69848 11.7502 5.00096 11.7502 5.31635V10.7787C11.7502 11.0941 11.6201 11.3966 11.3885 11.6196C11.1568 11.8426 10.8426 11.9679 10.515 11.9679C10.1874 11.9679 9.87327 11.8426 9.64162 11.6196C9.40998 11.3966 9.27984 11.0941 9.27984 10.7787V5.31635ZM10.548 16.027C10.2678 16.027 9.99401 15.947 9.76109 15.7972C9.52817 15.6473 9.34663 15.4344 9.23943 15.1852C9.13223 14.936 9.10418 14.6619 9.15883 14.3973C9.21348 14.1328 9.34838 13.8899 9.54646 13.6992C9.74454 13.5085 9.99691 13.3786 10.2717 13.326C10.5464 13.2734 10.8312 13.3004 11.09 13.4036C11.3488 13.5068 11.57 13.6816 11.7256 13.9058C11.8813 14.13 11.9643 14.3937 11.9643 14.6634C11.9643 15.025 11.8151 15.3719 11.5495 15.6276C11.2839 15.8833 10.9236 16.027 10.548 16.027Z" fill="#F73636"/>
</svg>
