<?xml version="1.0" encoding="utf-8"?>
<!-- Generator: Adobe Illustrator 27.8.1, SVG Export Plug-In . SVG Version: 6.00 Build 0)  -->
<svg version="1.1" id="Capa_1" xmlns="http://www.w3.org/2000/svg" xmlns:xlink="http://www.w3.org/1999/xlink" x="0px" y="0px"
	 viewBox="0 0 144.1 47.6" style="enable-background:new 0 0 144.1 47.6;" xml:space="preserve">
<style type="text/css">
	.st0{clip-path:url(#SVGID_00000062173646701414652690000011204135045859055535_);}
</style>
<g>
	<g>
		<defs>
			<rect id="SVGID_1_" x="8.5" y="2.6" width="126.1" height="42"/>
		</defs>
		<clipPath id="SVGID_00000165200185145925531750000014845165451217954185_">
			<use xlink:href="#SVGID_1_"  style="overflow:visible;"/>
		</clipPath>
		<g style="clip-path:url(#SVGID_00000165200185145925531750000014845165451217954185_);">
			<path d="M31.6,25.8l-10,10l8.8,8.8H33l8.7-8.7l0.1-0.1L31.6,25.8L31.6,25.8z M31.7,43.3l-7.4-7.4l7.4-7.4l7.4,7.4L31.7,43.3
				L31.7,43.3z"/>
			<path d="M31.6,8.4l-10,10l10,10l10-10l0.1-0.1L31.6,8.4z M31.6,25.8l-7.4-7.4l7.4-7.4l7.4,7.4L31.6,25.8z"/>
			<path d="M40.4,34.5l-10,10.1l20-0.1L40.4,34.5z M34.9,42.7l5.4-5.5l5.4,5.4L34.9,42.7z"/>
			<path d="M22.9,17.1l-10,10l10,10l10-10L33,27L22.9,17.1z M30.3,27.1l-7.4,7.4l-7.4-7.4l7.4-7.4L30.3,27.1L30.3,27.1z"/>
			<path d="M10.9,2.6H8.5v42h2.4V2.6z"/>
			<path d="M36.7,5.1c-1.3-1.3-3.1-2.1-5-2.1c-1.9,0-3.7,0.7-5,2.1c-1.3,1.3-2.1,3.1-2.1,5s0.7,3.7,2.1,5c1.3,1.3,3.1,2.1,5,2.1
				c1.9,0,3.7-0.7,5-2.1C39.4,12.4,39.4,7.8,36.7,5.1L36.7,5.1z M35.3,13.8c-2,2-5.3,2-7.4,0c-1-1-1.5-2.3-1.5-3.7s0.5-2.7,1.5-3.7
				s2.3-1.5,3.7-1.5c1.4,0,2.7,0.5,3.7,1.5C37.4,8.5,37.4,11.8,35.3,13.8"/>
			<path d="M73.5,44.3h-2.4l-6.5-8.2L61,39.7v4.5h-1.9V27.4H61v10.1l9.7-10.1h2.5L66,34.8L73.5,44.3z"/>
			<path d="M79.2,27.4h-1.9v16.9h1.9V27.4z"/>
			<path d="M92.6,44.6c-5.1,0-8.6-4-8.6-8.7s3.5-8.8,8.6-8.8s8.6,4,8.6,8.7C101.3,40.5,97.8,44.6,92.6,44.6z M92.6,28.9
				c-3.9,0-6.6,3.1-6.6,6.9c0,3.9,2.8,7,6.7,7s6.6-3.1,6.6-6.9C99.3,32,96.5,28.9,92.6,28.9z"/>
			<path d="M111.1,44.3h-1.9V29.2h-5.7v-1.8h13.3v1.8h-5.7C111.1,29.2,111.1,44.3,111.1,44.3z"/>
			<path d="M134.6,44.3h-2.1l-2-4.5h-9.2l-2,4.5h-2l7.7-17h1.8L134.6,44.3L134.6,44.3z M126,29.5l-3.9,8.6h7.7L126,29.5L126,29.5z"
				/>
		</g>
	</g>
</g>
</svg>
