<?xml version="1.0" encoding="utf-8"?>
<!-- Generator: Adobe Illustrator 27.0.0, SVG Export Plug-In . SVG Version: 6.00 Build 0)  -->
<svg version="1.1" id="Capa_1" xmlns="http://www.w3.org/2000/svg" xmlns:xlink="http://www.w3.org/1999/xlink" x="0px" y="0px"
	 viewBox="0 0 127 42" style="enable-background:new 0 0 127 42;" xml:space="preserve">
<style type="text/css">
	.st0{clip-path:url(#SVGID_00000111898188985026161400000001105510017306280354_);}
	.st1{fill:#FFFFFF;}
</style>
<g>
	<defs>
		<rect id="SVGID_1_" y="0" width="126.1" height="42"/>
	</defs>
	<clipPath id="SVGID_00000148624564703020657090000017654515043508471976_">
		<use xlink:href="#SVGID_1_"  style="overflow:visible;"/>
	</clipPath>
	<g style="clip-path:url(#SVGID_00000148624564703020657090000017654515043508471976_);">
		<path class="st1" d="M23.1,23.2l-10,10l8.8,8.8h2.6l8.7-8.7l0.1-0.1L23.1,23.2L23.1,23.2z M23.2,40.7l-7.4-7.4l7.4-7.4l7.4,7.4
			L23.2,40.7L23.2,40.7z"/>
		<path class="st1" d="M23.1,5.8l-10,10l10,10l10-10l0.1-0.1L23.1,5.8z M23.1,23.2l-7.4-7.4l7.4-7.4l7.4,7.4L23.1,23.2z"/>
		<path class="st1" d="M31.9,31.9L21.9,42l20-0.1L31.9,31.9z M26.4,40.1l5.4-5.5l5.4,5.4L26.4,40.1z"/>
		<path class="st1" d="M14.4,14.5l-10,10l10,10l10-10l0.1-0.1L14.4,14.5z M21.8,24.5l-7.4,7.4l-7.4-7.4l7.4-7.4L21.8,24.5L21.8,24.5
			z"/>
		<path class="st1" d="M2.4,0H0v42h2.4V0z"/>
		<path class="st1" d="M28.2,2.5c-1.3-1.3-3.1-2.1-5-2.1s-3.7,0.7-5,2.1c-1.3,1.3-2.1,3.1-2.1,5s0.7,3.7,2.1,5
			c1.3,1.3,3.1,2.1,5,2.1s3.7-0.7,5-2.1C30.9,9.8,30.9,5.2,28.2,2.5L28.2,2.5z M26.8,11.2c-2,2-5.3,2-7.4,0c-1-1-1.5-2.3-1.5-3.7
			c0-1.4,0.5-2.7,1.5-3.7c1-1,2.3-1.5,3.7-1.5c1.4,0,2.7,0.5,3.7,1.5C28.9,5.9,28.9,9.2,26.8,11.2"/>
		<path class="st1" d="M65,41.7h-2.4l-6.5-8.2l-3.6,3.6v4.5h-1.9V24.8h1.9v10.1l9.7-10.1h2.5l-7.2,7.4L65,41.7z"/>
		<path class="st1" d="M70.7,24.8h-1.9v16.9h1.9V24.8z"/>
		<path class="st1" d="M84.1,42c-5.1,0-8.6-4-8.6-8.7c0-4.7,3.5-8.8,8.6-8.8s8.6,4,8.6,8.7C92.8,37.9,89.3,42,84.1,42z M84.1,26.3
			c-3.9,0-6.6,3.1-6.6,6.9c0,3.9,2.8,7,6.7,7s6.6-3.1,6.6-6.9C90.8,29.4,88,26.3,84.1,26.3z"/>
		<path class="st1" d="M102.6,41.7h-1.9V26.6H95v-1.8h13.3v1.8h-5.7V41.7z"/>
		<path class="st1" d="M126.1,41.7H124l-2-4.5h-9.2l-2,4.5h-2l7.7-17h1.8L126.1,41.7L126.1,41.7z M117.5,26.9l-3.9,8.6h7.7
			L117.5,26.9L117.5,26.9z"/>
	</g>
</g>
</svg>
