<svg width="127" height="42" viewBox="0 0 127 42" fill="none" xmlns="http://www.w3.org/2000/svg">
<g clip-path="url(#clip0_46_9)">
<path d="M23.1427 23.1948L13.0942 33.2433L21.851 42H24.4345L33.1366 33.2979L33.1937 33.2408L23.1452 23.1923L23.1427 23.1948ZM23.2098 40.671L15.7821 33.2433L23.1427 25.8827L30.5605 33.3004L23.2098 40.671V40.671Z" fill="#ECECEC"/>
<path d="M23.1427 5.79062L13.0942 15.8391L23.1427 25.8876L33.1366 15.8963L33.1912 15.8391L23.1427 5.79062ZM23.1427 23.1997L15.7821 15.8391L23.1427 8.4785L30.5034 15.8391L23.1427 23.1997Z" fill="#ECECEC"/>
<path d="M31.8943 31.949L21.8706 42L41.8509 41.9329L31.8943 31.949ZM26.4489 40.0897L31.8943 34.6294L37.3048 40.0549L26.4489 40.0897Z" fill="#67A7DE"/>
<path d="M14.4206 14.4852L4.37207 24.5337L14.4206 34.5822L24.4144 24.5909L24.4716 24.5337L14.4206 14.4852ZM21.7812 24.5337L14.4206 31.8944L7.05995 24.5337L14.4206 17.1731L21.7812 24.5337V24.5337Z" fill="#436FB4"/>
<path d="M2.36245 0H0V42H2.36245V0Z" fill="#436FB4"/>
<path d="M28.1683 2.47423C26.8269 1.13277 25.0432 0.392487 23.1453 0.392487C21.2474 0.392487 19.4638 1.13277 18.1198 2.47423C16.7784 3.81568 16.0381 5.60181 16.0381 7.49972C16.0381 9.39763 16.7784 11.1813 18.1198 12.5252C19.4588 13.8642 21.2424 14.602 23.1428 14.602C25.0432 14.602 26.8269 13.8642 28.1683 12.5252C30.9382 9.75535 30.9382 5.24657 28.1683 2.47671V2.47423ZM26.8244 11.1813C24.7948 13.2108 21.4933 13.2108 19.4638 11.1813C18.48 10.1975 17.9385 8.89086 17.9385 7.5022C17.9385 6.11355 18.48 4.80439 19.4638 3.82314C20.4475 2.8394 21.7542 2.29785 23.1428 2.29785C24.5315 2.29785 25.8382 2.8394 26.8219 3.82314C28.8515 5.85271 28.8515 9.15418 26.8219 11.1838" fill="#67A7DE"/>
<path d="M65.0361 41.7093H62.6488L56.1577 33.5314L52.5631 37.1757V41.7093H50.6577V24.8244H52.5631V34.9077L62.2613 24.8244H64.7231L57.4842 32.2049L65.0361 41.7093Z" fill="#436FB4"/>
<path d="M70.7022 24.8219H68.7969V41.7093H70.7022V24.8219Z" fill="#436FB4"/>
<path d="M84.1171 42C78.9773 42 75.5293 37.9706 75.5293 33.2904C75.5293 28.6103 79.027 24.5337 84.1668 24.5337C89.3066 24.5337 92.7546 28.5631 92.7546 33.2433C92.7546 37.9234 89.2569 42 84.1171 42ZM84.1171 26.295C80.2567 26.295 77.5067 29.3828 77.5067 33.2433C77.5067 37.1037 80.3064 40.2387 84.1643 40.2387C88.0222 40.2387 90.7747 37.1509 90.7747 33.2904C90.7747 29.43 87.9775 26.295 84.1171 26.295Z" fill="#436FB4"/>
<path d="M102.642 41.7093H100.711V26.5832H95.0425V24.8244H108.31V26.5832H102.642V41.7093Z" fill="#436FB4"/>
<path d="M126.065 41.7093H124.015L122.038 37.2453H112.846L110.844 41.7093H108.889L116.585 24.7026H118.369L126.065 41.7093V41.7093ZM117.452 26.921L113.592 35.5337H121.288L117.452 26.921V26.921Z" fill="#436FB4"/>
</g>
<defs>
<clipPath id="clip0_46_9">
<rect width="126.065" height="42" fill="white"/>
</clipPath>
</defs>
</svg>
