<?xml version="1.0" encoding="utf-8"?>
<!-- Generator: Adobe Illustrator 27.8.1, SVG Export Plug-In . SVG Version: 6.00 Build 0)  -->
<svg version="1.1" id="Capa_1" xmlns="http://www.w3.org/2000/svg" xmlns:xlink="http://www.w3.org/1999/xlink" x="0px" y="0px"
	 viewBox="0 0 144.1 47.6" style="enable-background:new 0 0 144.1 47.6;" xml:space="preserve">
<g>
	<path d="M14.1,32.2V14.9h8.3c2.8,0,4.3,1.1,5.1,1.8c1.4,1.4,1.8,3.2,1.8,4.5c0,1.4-0.3,3.1-1.7,4.3c-1.4,1.2-2.9,1.4-4.3,1.4h-3
		v5.2H14.1z M20.2,22.6h1.1c0.3,0,1,0,1.4-0.5c0.2-0.2,0.4-0.5,0.4-1.1c0-0.5-0.2-0.9-0.5-1.1c-0.3-0.2-0.8-0.4-1.3-0.4h-1.1V22.6z"
		/>
	<path d="M35.5,30.1l-0.5,2.2h-6.7l6-17.3h7l6.2,17.3h-6.7l-0.6-2.2H35.5z M38.1,20.7h-0.2c0,0.7-0.1,1.3-0.3,2L36.7,26h2.5
		l-0.8-3.3C38.3,22,38.2,21.3,38.1,20.7z"/>
	<path d="M49.3,32.2V14.9h7.8c1.8,0,3.7,0.2,5.3,1.8c0.9,0.9,1.6,2.2,1.6,4.3c0,1.5-0.5,2.5-1,3.1c-0.5,0.7-1.4,1.2-2.4,1.4v0.2
		c0.3,0.2,0.7,0.4,0.9,0.8l3.9,5.8h-7.3l-2.5-5.1c-0.1-0.2-0.2-0.3-0.2-0.5l-0.1,0.1v5.6H49.3z M55.4,22.6h0.7
		c0.4,0,0.9-0.1,1.3-0.4c0.2-0.2,0.4-0.5,0.4-1.1c0-0.4-0.1-0.8-0.3-1c-0.2-0.2-0.5-0.5-1.1-0.5h-1.1V22.6z"/>
	<path d="M69.1,32.2V20.4l-3.5,0.2v-5.6h13.3v5.6l-3.5-0.2v11.9H69.1z"/>
	<path d="M80.8,32.2V14.9h6l4,6.6c0.7,1,1.1,1.7,1.6,3.1h0.2c-0.3-1.1-0.5-2.8-0.5-4.1v-5.5h6v17.3h-6l-4.3-6.8
		c-0.4-0.6-0.9-1.5-1.2-2.3h-0.2c0.2,0.9,0.4,2.4,0.4,3.2v5.9H80.8z"/>
	<path d="M101.6,32.2V14.9h11.7v4.8h-5.4v1.6h4.9v4.6h-4.9v1.7h5.6v4.8H101.6z"/>
	<path d="M116.2,32.2V14.9h7.8c1.8,0,3.7,0.2,5.3,1.8c0.9,0.9,1.6,2.2,1.6,4.3c0,1.5-0.5,2.5-1,3.1c-0.5,0.7-1.4,1.2-2.4,1.4v0.2
		c0.3,0.2,0.7,0.4,0.9,0.8l3.9,5.8h-7.3l-2.5-5.1c-0.1-0.2-0.2-0.3-0.2-0.5l-0.1,0.1v5.6H116.2z M122.3,22.6h0.7
		c0.4,0,0.9-0.1,1.3-0.4c0.2-0.2,0.4-0.5,0.4-1.1c0-0.4-0.1-0.8-0.3-1c-0.2-0.2-0.5-0.5-1.1-0.5h-1.1V22.6z"/>
</g>
</svg>
