<svg width="36" height="7" viewBox="0 0 36 7" fill="none" xmlns="http://www.w3.org/2000/svg">
<path d="M0 5.49964V0.62204H1.73741C2.65344 0.62204 3.30244 1.25413 3.30244 2.1803V2.18706C3.30244 3.11323 2.65344 3.75885 1.73741 3.75885H0.608433V5.49964H0ZM1.58193 1.16287H0.608433V3.21802H1.58193C2.27824 3.21802 2.68049 2.83606 2.68049 2.19383V2.18706C2.68049 1.54483 2.27824 1.16287 1.58193 1.16287Z" fill="#333333"/>
<path d="M5.41448 5.56725C4.4376 5.56725 3.78523 4.86079 3.78523 3.74195V3.73519C3.78523 2.61635 4.44098 1.91665 5.4111 1.91665C6.38121 1.91665 7.04035 2.61297 7.04035 3.73519V3.74195C7.04035 4.86417 6.38459 5.56725 5.41448 5.56725ZM5.41786 5.0467C6.03643 5.0467 6.43867 4.56671 6.43867 3.74195V3.73519C6.43867 2.91042 6.03305 2.4372 5.4111 2.4372C4.79928 2.4372 4.3869 2.9138 4.3869 3.73519V3.74195C4.3869 4.57009 4.7959 5.0467 5.41786 5.0467Z" fill="#333333"/>
<path d="M8.54733 5.49964L7.5637 1.98425H8.14847L8.85155 4.84389H8.86507L9.65941 1.98425H10.2273L11.025 4.84389H11.0385L11.7416 1.98425H12.323L11.3427 5.49964H10.7445L9.95011 2.7786H9.93659L9.14562 5.49964H8.54733Z" fill="#333333"/>
<path d="M14.4688 5.56725C13.4582 5.56725 12.8497 4.86079 12.8497 3.75547V3.75209C12.8497 2.66367 13.4717 1.91665 14.4317 1.91665C15.3916 1.91665 15.9764 2.62987 15.9764 3.68449V3.90082H13.4446C13.4582 4.62418 13.857 5.0467 14.4824 5.0467C14.9285 5.0467 15.2429 4.82361 15.3443 4.52277L15.3544 4.49235H15.9325L15.9257 4.52615C15.8108 5.10754 15.2361 5.56725 14.4688 5.56725ZM14.4283 2.4372C13.9179 2.4372 13.519 2.78536 13.4548 3.44111H15.3781C15.3206 2.75832 14.9421 2.4372 14.4283 2.4372Z" fill="#333333"/>
<path d="M16.7871 5.49964V1.98425H17.3752V2.57917H17.3887C17.507 2.17354 17.8113 1.91665 18.2067 1.91665C18.3081 1.91665 18.396 1.93355 18.4434 1.94031V2.51156C18.396 2.49466 18.271 2.47776 18.129 2.47776C17.6727 2.47776 17.3752 2.7955 17.3752 3.32957V5.49964H16.7871Z" fill="#333333"/>
<path d="M20.4168 5.56725C19.4061 5.56725 18.7977 4.86079 18.7977 3.75547V3.75209C18.7977 2.66367 19.4197 1.91665 20.3796 1.91665C21.3396 1.91665 21.9244 2.62987 21.9244 3.68449V3.90082H19.3926C19.4061 4.62418 19.805 5.0467 20.4303 5.0467C20.8765 5.0467 21.1909 4.82361 21.2923 4.52277L21.3024 4.49235H21.8804L21.8737 4.52615C21.7587 5.10754 21.1841 5.56725 20.4168 5.56725ZM20.3762 2.4372C19.8658 2.4372 19.467 2.78536 19.4028 3.44111H21.3261C21.2686 2.75832 20.89 2.4372 20.3762 2.4372Z" fill="#333333"/>
<path d="M24.0567 5.56725C23.1576 5.56725 22.5626 4.85065 22.5626 3.74195V3.73857C22.5626 2.62987 23.1643 1.91665 24.0465 1.91665C24.5434 1.91665 24.9524 2.16678 25.1721 2.57241H25.1857V0.62204H25.7738V5.49964H25.1857V4.90473H25.1721C24.9524 5.31373 24.5603 5.56725 24.0567 5.56725ZM24.1716 5.0467C24.7665 5.0467 25.189 4.52953 25.189 3.74195V3.73857C25.189 2.95437 24.7631 2.4372 24.1716 2.4372C23.5497 2.4372 23.1643 2.93747 23.1643 3.73857V3.74195C23.1643 4.54981 23.5497 5.0467 24.1716 5.0467Z" fill="#333333"/>
<path d="M30.1669 5.56725C29.6633 5.56725 29.2712 5.31373 29.0514 4.90473H29.0379V5.49964H28.4498V0.62204H29.0379V2.57241H29.0514C29.2712 2.16678 29.6802 1.91665 30.177 1.91665C31.0593 1.91665 31.6609 2.62987 31.6609 3.73857V3.74195C31.6609 4.85065 31.066 5.56725 30.1669 5.56725ZM30.052 5.0467C30.6739 5.0467 31.0593 4.54981 31.0593 3.74195V3.73857C31.0593 2.93747 30.6739 2.4372 30.052 2.4372C29.4604 2.4372 29.0345 2.95437 29.0345 3.73857V3.74195C29.0345 4.52953 29.4571 5.0467 30.052 5.0467Z" fill="#333333"/>
<path d="M32.671 6.68271C32.5561 6.68271 32.4311 6.66919 32.3567 6.65567V6.17568C32.4074 6.18582 32.475 6.19596 32.546 6.19596C32.9178 6.19596 33.124 6.10132 33.266 5.70246L33.3369 5.50302L32.0322 1.98425H32.6609L33.631 4.91149H33.6445L34.618 1.98425H35.2366L33.8643 5.71936C33.6141 6.39201 33.3065 6.68271 32.671 6.68271Z" fill="#333333"/>
</svg>
